<svg width="503" height="153" viewBox="0 0 503 153" fill="none" xmlns="http://www.w3.org/2000/svg">
<path d="M8.56705 30.428H2.12173L2.1608 28.3772H8.56705C10.6113 28.3772 12.3691 27.9215 13.8405 27.01C15.3249 26.0855 16.4707 24.8095 17.278 23.1819C18.0853 21.5543 18.4889 19.6663 18.4889 17.5178V14.8616C18.4889 13.2209 18.2545 11.7366 17.7858 10.4084C17.3301 9.08032 16.6725 7.94751 15.8131 7.01001C14.9538 6.05949 13.9251 5.33032 12.7272 4.82251C11.5423 4.3147 10.2142 4.06079 8.74283 4.06079H2.00455V1.99048H8.74283C10.5137 1.99048 12.1348 2.29647 13.6061 2.90845C15.0905 3.50741 16.373 4.3798 17.4538 5.52563C18.5475 6.65845 19.3874 8.01912 19.9733 9.60767C20.5723 11.1962 20.8717 12.967 20.8717 14.9202V17.5178C20.8717 19.4709 20.5723 21.2418 19.9733 22.8303C19.3874 24.4189 18.5475 25.7795 17.4538 26.9124C16.36 28.0452 15.0644 28.9176 13.567 29.5295C12.0697 30.1285 10.403 30.428 8.56705 30.428ZM3.19595 1.99048V30.428H0.79361V1.99048H3.19595ZM25.1686 20.1936V19.5491C25.1686 18.0126 25.39 16.5933 25.8327 15.2913C26.2754 13.9892 26.9069 12.8629 27.7272 11.9124C28.5605 10.9618 29.5566 10.2262 30.7155 9.70532C31.8743 9.17147 33.1634 8.90454 34.5827 8.90454C36.015 8.90454 37.3105 9.17147 38.4694 9.70532C39.6282 10.2262 40.6243 10.9618 41.4577 11.9124C42.291 12.8629 42.929 13.9892 43.3717 15.2913C43.8144 16.5933 44.0358 18.0126 44.0358 19.5491V20.1936C44.0358 21.7301 43.8144 23.1493 43.3717 24.4514C42.929 25.7405 42.291 26.8603 41.4577 27.8108C40.6374 28.7613 39.6478 29.5035 38.4889 30.0374C37.3301 30.5582 36.041 30.8186 34.6217 30.8186C33.1894 30.8186 31.8939 30.5582 30.735 30.0374C29.5762 29.5035 28.5801 28.7613 27.7467 27.8108C26.9134 26.8603 26.2754 25.7405 25.8327 24.4514C25.39 23.1493 25.1686 21.7301 25.1686 20.1936ZM27.4928 19.5491V20.1936C27.4928 21.3525 27.6491 22.4527 27.9616 23.4944C28.2741 24.523 28.7298 25.441 29.3288 26.2483C29.9277 27.0426 30.6699 27.6676 31.5553 28.1233C32.4407 28.579 33.4629 28.8069 34.6217 28.8069C35.7676 28.8069 36.7767 28.579 37.6491 28.1233C38.5345 27.6676 39.2767 27.0426 39.8756 26.2483C40.4746 25.441 40.9238 24.523 41.2233 23.4944C41.5358 22.4527 41.692 21.3525 41.692 20.1936V19.5491C41.692 18.4032 41.5358 17.316 41.2233 16.2874C40.9238 15.2587 40.4681 14.3407 39.8561 13.5334C39.2572 12.7262 38.515 12.0881 37.6295 11.6194C36.7441 11.1506 35.7285 10.9163 34.5827 10.9163C33.4368 10.9163 32.4212 11.1506 31.5358 11.6194C30.6634 12.0881 29.9212 12.7262 29.3092 13.5334C28.7103 14.3407 28.2545 15.2587 27.942 16.2874C27.6426 17.316 27.4928 18.4032 27.4928 19.5491ZM54.7389 25.4866L59.8366 9.29517H61.4772L60.5006 13.6506L55.1686 30.428H53.528L54.7389 25.4866ZM49.446 9.29517L53.9186 25.5842L54.8756 30.428H53.1764L47.0436 9.29517H49.446ZM67.8249 25.5256L72.1803 9.29517H74.5827L68.4499 30.428H66.7702L67.8249 25.5256ZM61.8092 9.29517L66.8288 25.3499L68.0983 30.428H66.4577L61.0085 13.6311L60.0905 9.29517H61.8092ZM81.3991 13.8069V30.428H79.0749V9.29517H81.3014L81.3991 13.8069ZM80.8717 18.553L79.8366 17.967C79.9147 16.717 80.1686 15.5452 80.5983 14.4514C81.028 13.3577 81.6074 12.3941 82.3366 11.5608C83.0788 10.7275 83.9447 10.0764 84.9342 9.60767C85.9368 9.13892 87.0436 8.90454 88.2545 8.90454C89.3092 8.90454 90.2532 9.04777 91.0866 9.33423C91.9199 9.62069 92.6295 10.0764 93.2155 10.7014C93.8014 11.3264 94.2441 12.1272 94.5436 13.1038C94.8561 14.0803 95.0124 15.2717 95.0124 16.678V30.428H92.6686V16.6584C92.6686 15.2001 92.4668 14.0608 92.0631 13.2405C91.6595 12.4071 91.0866 11.8147 90.3444 11.4631C89.6022 11.1116 88.7233 10.9358 87.7077 10.9358C86.5879 10.9358 85.6048 11.1832 84.7585 11.678C83.9251 12.1597 83.222 12.7913 82.6491 13.5725C82.0892 14.3407 81.6595 15.1676 81.36 16.053C81.0605 16.9254 80.8978 17.7587 80.8717 18.553ZM103.665 0.427979V30.428H101.34V0.427979H103.665ZM108.762 20.1936V19.5491C108.762 18.0126 108.984 16.5933 109.426 15.2913C109.869 13.9892 110.501 12.8629 111.321 11.9124C112.154 10.9618 113.15 10.2262 114.309 9.70532C115.468 9.17147 116.757 8.90454 118.176 8.90454C119.609 8.90454 120.904 9.17147 122.063 9.70532C123.222 10.2262 124.218 10.9618 125.051 11.9124C125.885 12.8629 126.523 13.9892 126.965 15.2913C127.408 16.5933 127.63 18.0126 127.63 19.5491V20.1936C127.63 21.7301 127.408 23.1493 126.965 24.4514C126.523 25.7405 125.885 26.8603 125.051 27.8108C124.231 28.7613 123.242 29.5035 122.083 30.0374C120.924 30.5582 119.635 30.8186 118.215 30.8186C116.783 30.8186 115.488 30.5582 114.329 30.0374C113.17 29.5035 112.174 28.7613 111.34 27.8108C110.507 26.8603 109.869 25.7405 109.426 24.4514C108.984 23.1493 108.762 21.7301 108.762 20.1936ZM111.087 19.5491V20.1936C111.087 21.3525 111.243 22.4527 111.555 23.4944C111.868 24.523 112.324 25.441 112.923 26.2483C113.521 27.0426 114.264 27.6676 115.149 28.1233C116.034 28.579 117.057 28.8069 118.215 28.8069C119.361 28.8069 120.37 28.579 121.243 28.1233C122.128 27.6676 122.87 27.0426 123.469 26.2483C124.068 25.441 124.518 24.523 124.817 23.4944C125.13 22.4527 125.286 21.3525 125.286 20.1936V19.5491C125.286 18.4032 125.13 17.316 124.817 16.2874C124.518 15.2587 124.062 14.3407 123.45 13.5334C122.851 12.7262 122.109 12.0881 121.223 11.6194C120.338 11.1506 119.322 10.9163 118.176 10.9163C117.031 10.9163 116.015 11.1506 115.13 11.6194C114.257 12.0881 113.515 12.7262 112.903 13.5334C112.304 14.3407 111.848 15.2587 111.536 16.2874C111.236 17.316 111.087 18.4032 111.087 19.5491ZM145.325 26.6389V15.7405C145.325 14.7379 145.117 13.872 144.7 13.1428C144.283 12.4137 143.671 11.8538 142.864 11.4631C142.057 11.0725 141.061 10.8772 139.876 10.8772C138.782 10.8772 137.805 11.0725 136.946 11.4631C136.1 11.8407 135.429 12.3551 134.934 13.0061C134.452 13.6441 134.212 14.3538 134.212 15.135L131.868 15.1155C131.868 14.3212 132.063 13.553 132.454 12.8108C132.844 12.0686 133.398 11.4045 134.114 10.8186C134.83 10.2327 135.683 9.77043 136.673 9.43188C137.675 9.08032 138.775 8.90454 139.973 8.90454C141.484 8.90454 142.812 9.15845 143.958 9.66626C145.117 10.1741 146.021 10.9358 146.673 11.9514C147.324 12.967 147.649 14.2431 147.649 15.7795V25.9944C147.649 26.7236 147.701 27.4788 147.805 28.26C147.923 29.0413 148.085 29.6858 148.294 30.1936V30.428H145.813C145.657 29.9592 145.533 29.3733 145.442 28.6702C145.364 27.954 145.325 27.2769 145.325 26.6389ZM145.872 18.1233L145.911 19.9202H141.321C140.123 19.9202 139.049 20.0308 138.098 20.2522C137.161 20.4605 136.367 20.773 135.715 21.1897C135.064 21.5933 134.563 22.0816 134.212 22.6545C133.873 23.2275 133.704 23.8785 133.704 24.6077C133.704 25.3629 133.893 26.053 134.27 26.678C134.661 27.303 135.208 27.8043 135.911 28.1819C136.627 28.5465 137.473 28.7288 138.45 28.7288C139.752 28.7288 140.898 28.4879 141.887 28.0061C142.89 27.5243 143.717 26.8928 144.368 26.1116C145.019 25.3303 145.455 24.4775 145.676 23.553L146.692 24.9006C146.523 25.5517 146.21 26.2222 145.755 26.9124C145.312 27.5894 144.732 28.2275 144.016 28.8264C143.3 29.4124 142.454 29.8941 141.477 30.2717C140.514 30.6363 139.42 30.8186 138.196 30.8186C136.816 30.8186 135.611 30.5582 134.583 30.0374C133.567 29.5165 132.773 28.8069 132.2 27.9084C131.64 26.997 131.36 25.9683 131.36 24.8225C131.36 23.7808 131.581 22.8499 132.024 22.0295C132.467 21.1962 133.105 20.4931 133.938 19.9202C134.784 19.3342 135.8 18.8915 136.985 18.592C138.183 18.2795 139.524 18.1233 141.008 18.1233H145.872ZM167.649 26.3264V0.427979H169.993V30.428H167.805L167.649 26.3264ZM152.981 20.0764V19.6663C152.981 18.0256 153.17 16.5478 153.548 15.2327C153.925 13.9045 154.465 12.7717 155.169 11.8342C155.885 10.8837 156.744 10.1611 157.747 9.66626C158.749 9.15845 159.882 8.90454 161.145 8.90454C162.382 8.90454 163.476 9.10636 164.426 9.51001C165.377 9.91366 166.191 10.4931 166.868 11.2483C167.558 12.0035 168.111 12.9019 168.528 13.9436C168.958 14.9853 169.27 16.1441 169.465 17.4202V22.635C169.309 23.8329 169.023 24.9332 168.606 25.9358C168.189 26.9254 167.636 27.7913 166.946 28.5334C166.256 29.2626 165.423 29.829 164.446 30.2327C163.482 30.6233 162.369 30.8186 161.106 30.8186C159.856 30.8186 158.73 30.5582 157.727 30.0374C156.725 29.5165 155.872 28.7808 155.169 27.8303C154.465 26.8668 153.925 25.7275 153.548 24.4124C153.17 23.0972 152.981 21.6519 152.981 20.0764ZM155.325 19.6663V20.0764C155.325 21.3134 155.449 22.4592 155.696 23.5139C155.943 24.5686 156.321 25.4866 156.829 26.2678C157.337 27.0491 157.981 27.6611 158.762 28.1038C159.544 28.5465 160.468 28.7678 161.536 28.7678C162.877 28.7678 164.003 28.5139 164.915 28.0061C165.826 27.4853 166.555 26.8017 167.102 25.9553C167.649 25.0959 168.046 24.1584 168.294 23.1428V17.0686C168.137 16.3785 167.909 15.6754 167.61 14.9592C167.311 14.2431 166.9 13.5855 166.38 12.9866C165.872 12.3746 165.221 11.8863 164.426 11.5217C163.645 11.1441 162.695 10.9553 161.575 10.9553C160.494 10.9553 159.563 11.1767 158.782 11.6194C158.001 12.0621 157.35 12.6806 156.829 13.4749C156.321 14.2561 155.943 15.1741 155.696 16.2288C155.449 17.2834 155.325 18.4293 155.325 19.6663ZM33.6125 76.053V78.2795C33.6125 81.3411 33.2135 84.0872 32.4157 86.5178C31.6178 88.9485 30.4767 91.0173 28.9923 92.7244C27.5265 94.4314 25.7638 95.7395 23.7043 96.6487C21.6447 97.5393 19.3625 97.9846 16.8576 97.9846C14.3712 97.9846 12.0983 97.5393 10.0387 96.6487C7.99771 95.7395 6.22574 94.4314 4.72281 92.7244C3.21988 91.0173 2.05093 88.9485 1.21597 86.5178C0.399567 84.0872 -0.00863647 81.3411 -0.00863647 78.2795V76.053C-0.00863647 72.9915 0.399567 70.2546 1.21597 67.8425C2.03238 65.4119 3.18277 63.343 4.66714 61.636C6.17007 59.9104 7.94205 58.6023 9.98306 57.7117C12.0426 56.8025 14.3156 56.3479 16.8019 56.3479C19.3068 56.3479 21.589 56.8025 23.6486 57.7117C25.7082 58.6023 27.4801 59.9104 28.9645 61.636C30.4489 63.343 31.59 65.4119 32.3878 67.8425C33.2043 70.2546 33.6125 72.9915 33.6125 76.053ZM26.6266 78.2795V75.9973C26.6266 73.7336 26.404 71.739 25.9586 70.0134C25.5319 68.2693 24.8918 66.8127 24.0382 65.6438C23.2033 64.4563 22.1735 63.5657 20.9489 62.9719C19.7243 62.3596 18.3419 62.0535 16.8019 62.0535C15.2619 62.0535 13.8888 62.3596 12.6828 62.9719C11.4767 63.5657 10.4469 64.4563 9.59341 65.6438C8.75845 66.8127 8.11832 68.2693 7.673 70.0134C7.22769 71.739 7.00504 73.7336 7.00504 75.9973V78.2795C7.00504 80.5432 7.22769 82.5471 7.673 84.2913C8.11832 86.0354 8.76773 87.5105 9.62125 88.7166C10.4933 89.9041 11.5324 90.804 12.7384 91.4163C13.9445 92.01 15.3175 92.3069 16.8576 92.3069C18.4162 92.3069 19.7985 92.01 21.0045 91.4163C22.2106 90.804 23.2311 89.9041 24.0661 88.7166C24.901 87.5105 25.5319 86.0354 25.9586 84.2913C26.404 82.5471 26.6266 80.5432 26.6266 78.2795ZM53.735 67.3137V72.2122H36.7575V67.3137H53.735ZM41.6559 59.9382H48.3634V89.1062C48.3634 90.0339 48.4933 90.7483 48.7531 91.2493C49.0314 91.7317 49.4118 92.0564 49.8942 92.2234C50.3766 92.3904 50.9425 92.4739 51.5919 92.4739C52.0558 92.4739 52.5011 92.446 52.9279 92.3904C53.3546 92.3347 53.6979 92.2791 53.9577 92.2234L53.9855 97.3445C53.4289 97.5115 52.7794 97.6599 52.0373 97.7898C51.3136 97.9197 50.4787 97.9846 49.5324 97.9846C47.9923 97.9846 46.6286 97.7156 45.4411 97.1775C44.2536 96.6208 43.3258 95.7209 42.6579 94.4778C41.9899 93.2346 41.6559 91.5833 41.6559 89.5237V59.9382ZM75.8893 91.3884V77.0271C75.8893 75.9509 75.6945 75.0232 75.3048 74.2439C74.9152 73.4646 74.3214 72.8616 73.5236 72.4348C72.7443 72.0081 71.7609 71.7947 70.5734 71.7947C69.4787 71.7947 68.5324 71.9802 67.7345 72.3513C66.9367 72.7224 66.3151 73.2234 65.8698 73.8542C65.4245 74.4851 65.2018 75.1995 65.2018 75.9973H58.5221C58.5221 74.8098 58.8097 73.6594 59.3849 72.5461C59.9601 71.4329 60.7951 70.4402 61.8898 69.5681C62.9845 68.696 64.2926 68.0095 65.8141 67.5085C67.3356 67.0076 69.0426 66.7571 70.9352 66.7571C73.1989 66.7571 75.2028 67.1375 76.9469 67.8982C78.7096 68.6589 80.0919 69.8093 81.0939 71.3494C82.1144 72.8708 82.6247 74.782 82.6247 77.0828V90.47C82.6247 91.843 82.7174 93.0769 82.903 94.1716C83.1071 95.2478 83.3947 96.1848 83.7658 96.9827V97.428H76.8913C76.5758 96.7043 76.3253 95.7859 76.1398 94.6726C75.9728 93.5408 75.8893 92.446 75.8893 91.3884ZM76.8634 79.1145L76.9191 83.2615H72.1042C70.861 83.2615 69.7663 83.3821 68.82 83.6233C67.8737 83.8459 67.0851 84.1799 66.4543 84.6252C65.8234 85.0706 65.3503 85.6086 65.0348 86.2395C64.7194 86.8704 64.5617 87.5847 64.5617 88.3826C64.5617 89.1804 64.7472 89.9133 65.1183 90.5813C65.4894 91.2307 66.0275 91.741 66.7326 92.1121C67.4562 92.4832 68.3283 92.6687 69.3488 92.6687C70.7218 92.6687 71.9186 92.3904 72.9391 91.8337C73.9782 91.2585 74.7946 90.5627 75.3883 89.7463C75.9821 88.9114 76.2975 88.1228 76.3346 87.3806L78.5055 90.3586C78.2829 91.1194 77.9025 91.9358 77.3644 92.8079C76.8263 93.6799 76.1212 94.5149 75.2492 95.3127C74.3957 96.092 73.3659 96.7322 72.1598 97.2332C70.9723 97.7341 69.5993 97.9846 68.0407 97.9846C66.0739 97.9846 64.3205 97.595 62.7804 96.8157C61.2404 96.0178 60.0343 94.9509 59.1623 93.615C58.2902 92.2605 57.8542 90.7297 57.8542 89.0227C57.8542 87.427 58.151 86.0168 58.7448 84.7922C59.3571 83.5491 60.2477 82.51 61.4167 81.675C62.6042 80.8401 64.0514 80.2092 65.7585 79.7825C67.4655 79.3372 69.4137 79.1145 71.6032 79.1145H76.8634ZM96.3737 73.0471V97.428H89.6662V67.3137H96.0675L96.3737 73.0471ZM105.586 67.1189L105.53 73.3533C105.122 73.2791 104.677 73.2234 104.194 73.1863C103.731 73.1492 103.267 73.1306 102.803 73.1306C101.652 73.1306 100.641 73.2976 99.7692 73.6316C98.8971 73.947 98.1642 74.4109 97.5705 75.0232C96.9953 75.6169 96.55 76.3406 96.2345 77.1941C95.9191 78.0476 95.7336 79.0032 95.6779 80.0608L94.1471 80.1721C94.1471 78.2795 94.3327 76.5261 94.7038 74.9119C95.0749 73.2976 95.6315 71.8782 96.3737 70.6536C97.1344 69.429 98.0807 68.4734 99.2126 67.7869C100.363 67.1003 101.69 66.7571 103.193 66.7571C103.601 66.7571 104.037 66.7942 104.501 66.8684C104.983 66.9426 105.345 67.0261 105.586 67.1189ZM122.508 97.9846C120.281 97.9846 118.268 97.6228 116.468 96.8992C114.687 96.157 113.166 95.1272 111.904 93.8098C110.661 92.4924 109.705 90.9431 109.037 89.1619C108.369 87.3806 108.035 85.4602 108.035 83.4006V82.2874C108.035 79.9309 108.379 77.7971 109.065 75.886C109.752 73.9749 110.707 72.342 111.932 70.9875C113.156 69.6145 114.604 68.5662 116.274 67.8425C117.944 67.1189 119.753 66.7571 121.701 66.7571C123.853 66.7571 125.736 67.1189 127.351 67.8425C128.965 68.5662 130.301 69.5867 131.359 70.9041C132.435 72.2029 133.233 73.7522 133.752 75.552C134.29 77.3518 134.559 79.3372 134.559 81.5081V84.3748H111.292V79.5598H127.935V79.031C127.898 77.825 127.657 76.6931 127.212 75.6355C126.785 74.5779 126.126 73.7244 125.236 73.075C124.345 72.4255 123.157 72.1008 121.673 72.1008C120.56 72.1008 119.567 72.342 118.695 72.8245C117.841 73.2883 117.127 73.9656 116.552 74.8562C115.977 75.7468 115.531 76.823 115.216 78.0847C114.919 79.3279 114.771 80.7288 114.771 82.2874V83.4006C114.771 84.718 114.947 85.9426 115.299 87.0745C115.671 88.1877 116.209 89.1619 116.914 89.9968C117.619 90.8318 118.472 91.4905 119.474 91.9729C120.476 92.4368 121.617 92.6687 122.898 92.6687C124.512 92.6687 125.95 92.344 127.212 91.6946C128.473 91.0452 129.568 90.1267 130.496 88.9392L134.03 92.3625C133.381 93.3088 132.537 94.218 131.498 95.0901C130.459 95.9436 129.188 96.6394 127.685 97.1775C126.2 97.7156 124.475 97.9846 122.508 97.9846ZM156.769 91.3884V77.0271C156.769 75.9509 156.574 75.0232 156.185 74.2439C155.795 73.4646 155.201 72.8616 154.403 72.4348C153.624 72.0081 152.641 71.7947 151.453 71.7947C150.359 71.7947 149.412 71.9802 148.614 72.3513C147.817 72.7224 147.195 73.2234 146.75 73.8542C146.304 74.4851 146.082 75.1995 146.082 75.9973H139.402C139.402 74.8098 139.69 73.6594 140.265 72.5461C140.84 71.4329 141.675 70.4402 142.77 69.5681C143.864 68.696 145.173 68.0095 146.694 67.5085C148.215 67.0076 149.923 66.7571 151.815 66.7571C154.079 66.7571 156.083 67.1375 157.827 67.8982C159.59 68.6589 160.972 69.8093 161.974 71.3494C162.994 72.8708 163.505 74.782 163.505 77.0828V90.47C163.505 91.843 163.597 93.0769 163.783 94.1716C163.987 95.2478 164.275 96.1848 164.646 96.9827V97.428H157.771C157.456 96.7043 157.205 95.7859 157.02 94.6726C156.853 93.5408 156.769 92.446 156.769 91.3884ZM157.743 79.1145L157.799 83.2615H152.984C151.741 83.2615 150.646 83.3821 149.7 83.6233C148.754 83.8459 147.965 84.1799 147.334 84.6252C146.703 85.0706 146.23 85.6086 145.915 86.2395C145.599 86.8704 145.442 87.5847 145.442 88.3826C145.442 89.1804 145.627 89.9133 145.998 90.5813C146.369 91.2307 146.907 91.741 147.612 92.1121C148.336 92.4832 149.208 92.6687 150.229 92.6687C151.602 92.6687 152.798 92.3904 153.819 91.8337C154.858 91.2585 155.674 90.5627 156.268 89.7463C156.862 88.9114 157.177 88.1228 157.215 87.3806L159.385 90.3586C159.163 91.1194 158.782 91.9358 158.244 92.8079C157.706 93.6799 157.001 94.5149 156.129 95.3127C155.276 96.092 154.246 96.7322 153.04 97.2332C151.852 97.7341 150.479 97.9846 148.921 97.9846C146.954 97.9846 145.2 97.595 143.66 96.8157C142.12 96.0178 140.914 94.9509 140.042 93.615C139.17 92.2605 138.734 90.7297 138.734 89.0227C138.734 87.427 139.031 86.0168 139.625 84.7922C140.237 83.5491 141.128 82.51 142.297 81.675C143.484 80.8401 144.931 80.2092 146.638 79.7825C148.345 79.3372 150.294 79.1145 152.483 79.1145H157.743ZM211.904 91.8894V97.428H190.39V91.8894H211.904ZM192.366 56.9045V97.428H185.381V56.9045H192.366ZM209.093 73.8264V79.2815H190.39V73.8264H209.093ZM211.765 56.9045V62.4709H190.39V56.9045H211.765ZM234.755 91.1936V54.678H241.49V97.428H235.395L234.755 91.1936ZM215.161 82.7048V82.1204C215.161 79.8381 215.43 77.76 215.968 75.886C216.506 73.9934 217.285 72.3699 218.306 71.0154C219.326 69.6423 220.569 68.594 222.035 67.8704C223.501 67.1282 225.152 66.7571 226.989 66.7571C228.808 66.7571 230.403 67.1096 231.777 67.8147C233.15 68.5198 234.319 69.531 235.283 70.8484C236.248 72.1472 237.018 73.7058 237.593 75.5242C238.169 77.324 238.577 79.3279 238.818 81.5359V83.4006C238.577 85.553 238.169 87.5198 237.593 89.301C237.018 91.0823 236.248 92.6223 235.283 93.9211C234.319 95.22 233.14 96.2219 231.749 96.927C230.376 97.6321 228.771 97.9846 226.934 97.9846C225.115 97.9846 223.473 97.6042 222.007 96.8435C220.56 96.0828 219.326 95.0159 218.306 93.6428C217.285 92.2698 216.506 90.6555 215.968 88.8C215.43 86.926 215.161 84.8943 215.161 82.7048ZM221.868 82.1204V82.7048C221.868 84.0779 221.989 85.3582 222.23 86.5457C222.49 87.7332 222.889 88.7815 223.427 89.6907C223.965 90.5813 224.661 91.2864 225.514 91.8059C226.386 92.3069 227.425 92.5574 228.632 92.5574C230.153 92.5574 231.405 92.2234 232.389 91.5554C233.372 90.8875 234.142 89.9875 234.699 88.8557C235.274 87.7053 235.664 86.425 235.868 85.0149V79.9773C235.757 78.8826 235.525 77.8621 235.172 76.9158C234.838 75.9695 234.383 75.1438 233.808 74.4387C233.233 73.7151 232.519 73.1584 231.665 72.7688C230.83 72.3606 229.838 72.1565 228.687 72.1565C227.463 72.1565 226.423 72.4163 225.57 72.9358C224.716 73.4553 224.011 74.1697 223.455 75.0789C222.917 75.988 222.518 77.0457 222.258 78.2517C221.998 79.4578 221.868 80.7473 221.868 82.1204ZM266.622 90.3308V67.3137H273.358V97.428H267.012L266.622 90.3308ZM267.569 84.0686L269.823 84.0129C269.823 86.0354 269.6 87.9001 269.155 89.6072C268.71 91.2957 268.023 92.7708 267.095 94.0325C266.168 95.2756 264.98 96.2498 263.533 96.9548C262.086 97.6414 260.351 97.9846 258.328 97.9846C256.862 97.9846 255.517 97.7712 254.293 97.3445C253.068 96.9177 252.01 96.259 251.12 95.3684C250.248 94.4778 249.57 93.3181 249.088 91.8894C248.606 90.4607 248.364 88.7537 248.364 86.7683V67.3137H255.072V86.824C255.072 87.9187 255.202 88.8372 255.462 89.5793C255.721 90.303 256.074 90.8875 256.519 91.3328C256.965 91.7781 257.484 92.0935 258.078 92.2791C258.672 92.4646 259.302 92.5574 259.97 92.5574C261.882 92.5574 263.384 92.1863 264.479 91.4441C265.592 90.6833 266.381 89.6628 266.845 88.3826C267.327 87.1023 267.569 85.6643 267.569 84.0686ZM292.534 92.6409C293.629 92.6409 294.612 92.4275 295.484 92.0007C296.375 91.5554 297.089 90.9431 297.627 90.1638C298.184 89.3845 298.49 88.4846 298.546 87.4641H304.863C304.826 89.4124 304.251 91.1843 303.138 92.78C302.025 94.3757 300.549 95.6467 298.713 96.593C296.876 97.5208 294.844 97.9846 292.617 97.9846C290.317 97.9846 288.313 97.595 286.606 96.8157C284.899 96.0178 283.479 94.9231 282.347 93.5315C281.215 92.1399 280.362 90.5349 279.787 88.7166C279.23 86.8982 278.952 84.95 278.952 82.8718V81.8977C278.952 79.8196 279.23 77.8713 279.787 76.053C280.362 74.2161 281.215 72.6018 282.347 71.2102C283.479 69.8186 284.899 68.7332 286.606 67.9539C288.313 67.156 290.307 66.7571 292.59 66.7571C295.002 66.7571 297.117 67.2395 298.935 68.2043C300.754 69.1506 302.182 70.4773 303.221 72.1843C304.279 73.8728 304.826 75.8396 304.863 78.0847H298.546C298.49 76.9714 298.212 75.9695 297.711 75.0789C297.228 74.1697 296.542 73.446 295.651 72.908C294.779 72.3699 293.731 72.1008 292.506 72.1008C291.152 72.1008 290.029 72.3792 289.138 72.9358C288.248 73.4739 287.552 74.2161 287.051 75.1624C286.55 76.0901 286.188 77.1384 285.965 78.3074C285.761 79.4578 285.659 80.6545 285.659 81.8977V82.8718C285.659 84.115 285.761 85.321 285.965 86.49C286.17 87.6589 286.522 88.7073 287.023 89.635C287.543 90.5442 288.248 91.2771 289.138 91.8337C290.029 92.3718 291.161 92.6409 292.534 92.6409ZM308.732 82.7048V82.0647C308.732 79.8938 309.048 77.8806 309.678 76.0251C310.309 74.1511 311.218 72.5276 312.406 71.1545C313.612 69.7629 315.078 68.6868 316.803 67.926C318.548 67.1467 320.514 66.7571 322.704 66.7571C324.912 66.7571 326.879 67.1467 328.604 67.926C330.348 68.6868 331.823 69.7629 333.029 71.1545C334.236 72.5276 335.154 74.1511 335.785 76.0251C336.416 77.8806 336.731 79.8938 336.731 82.0647V82.7048C336.731 84.8757 336.416 86.8889 335.785 88.7444C335.154 90.5999 334.236 92.2234 333.029 93.615C331.823 94.988 330.358 96.0642 328.632 96.8435C326.906 97.6042 324.949 97.9846 322.759 97.9846C320.551 97.9846 318.575 97.6042 316.831 96.8435C315.106 96.0642 313.64 94.988 312.434 93.615C311.228 92.2234 310.309 90.5999 309.678 88.7444C309.048 86.8889 308.732 84.8757 308.732 82.7048ZM315.44 82.0647V82.7048C315.44 84.0593 315.579 85.3396 315.857 86.5457C316.135 87.7517 316.571 88.8093 317.165 89.7185C317.759 90.6277 318.52 91.342 319.447 91.8616C320.375 92.3811 321.479 92.6409 322.759 92.6409C324.003 92.6409 325.079 92.3811 325.988 91.8616C326.916 91.342 327.676 90.6277 328.27 89.7185C328.864 88.8093 329.3 87.7517 329.578 86.5457C329.875 85.3396 330.024 84.0593 330.024 82.7048V82.0647C330.024 80.7288 329.875 79.467 329.578 78.2795C329.3 77.0735 328.855 76.0066 328.242 75.0789C327.649 74.1511 326.888 73.4275 325.96 72.908C325.051 72.3699 323.965 72.1008 322.704 72.1008C321.442 72.1008 320.347 72.3699 319.42 72.908C318.51 73.4275 317.759 74.1511 317.165 75.0789C316.571 76.0066 316.135 77.0735 315.857 78.2795C315.579 79.467 315.44 80.7288 315.44 82.0647ZM349.089 73.0471V97.428H342.381V67.3137H348.782L349.089 73.0471ZM358.301 67.1189L358.245 73.3533C357.837 73.2791 357.392 73.2234 356.909 73.1863C356.445 73.1492 355.982 73.1306 355.518 73.1306C354.367 73.1306 353.356 73.2976 352.484 73.6316C351.612 73.947 350.879 74.4109 350.285 75.0232C349.71 75.6169 349.265 76.3406 348.949 77.1941C348.634 78.0476 348.448 79.0032 348.393 80.0608L346.862 80.1721C346.862 78.2795 347.048 76.5261 347.419 74.9119C347.79 73.2976 348.346 71.8782 349.089 70.6536C349.849 69.429 350.796 68.4734 351.927 67.7869C353.078 67.1003 354.404 66.7571 355.907 66.7571C356.316 66.7571 356.752 66.7942 357.215 66.8684C357.698 66.9426 358.06 67.0261 358.301 67.1189ZM375.223 97.9846C372.996 97.9846 370.983 97.6228 369.183 96.8992C367.402 96.157 365.881 95.1272 364.619 93.8098C363.376 92.4924 362.42 90.9431 361.752 89.1619C361.084 87.3806 360.75 85.4602 360.75 83.4006V82.2874C360.75 79.9309 361.093 77.7971 361.78 75.886C362.466 73.9749 363.422 72.342 364.647 70.9875C365.871 69.6145 367.319 68.5662 368.988 67.8425C370.658 67.1189 372.467 66.7571 374.416 66.7571C376.568 66.7571 378.451 67.1189 380.066 67.8425C381.68 68.5662 383.016 69.5867 384.073 70.9041C385.15 72.2029 385.947 73.7522 386.467 75.552C387.005 77.3518 387.274 79.3372 387.274 81.5081V84.3748H364.007V79.5598H380.65V79.031C380.613 77.825 380.372 76.6931 379.926 75.6355C379.5 74.5779 378.841 73.7244 377.95 73.075C377.06 72.4255 375.872 72.1008 374.388 72.1008C373.275 72.1008 372.282 72.342 371.41 72.8245C370.556 73.2883 369.842 73.9656 369.267 74.8562C368.692 75.7468 368.246 76.823 367.931 78.0847C367.634 79.3279 367.486 80.7288 367.486 82.2874V83.4006C367.486 84.718 367.662 85.9426 368.014 87.0745C368.385 88.1877 368.923 89.1619 369.629 89.9968C370.334 90.8318 371.187 91.4905 372.189 91.9729C373.191 92.4368 374.332 92.6687 375.612 92.6687C377.227 92.6687 378.665 92.344 379.926 91.6946C381.188 91.0452 382.283 90.1267 383.211 88.9392L386.745 92.3625C386.096 93.3088 385.252 94.218 384.213 95.0901C383.173 95.9436 381.902 96.6394 380.4 97.1775C378.915 97.7156 377.19 97.9846 375.223 97.9846ZM423.15 62.304L411.043 97.428H403.723L418.975 56.9045H423.651L423.15 62.304ZM433.28 97.428L421.146 62.304L420.617 56.9045H425.32L440.628 97.428H433.28ZM432.696 82.3987V87.9373H410.653V82.3987H432.696ZM450.731 73.1028V109.006H444.024V67.3137H450.202L450.731 73.1028ZM470.353 82.0925V82.677C470.353 84.8665 470.093 86.8982 469.573 88.7722C469.072 90.6277 468.321 92.2512 467.319 93.6428C466.336 95.0159 465.12 96.0828 463.673 96.8435C462.226 97.6042 460.556 97.9846 458.663 97.9846C456.789 97.9846 455.147 97.6414 453.737 96.9548C452.345 96.2498 451.167 95.2571 450.202 93.9768C449.237 92.6965 448.458 91.1936 447.864 89.468C447.289 87.7239 446.881 85.8127 446.64 83.7346V81.4802C446.881 79.2722 447.289 77.2683 447.864 75.4685C448.458 73.6687 449.237 72.1194 450.202 70.8206C451.167 69.5217 452.345 68.5198 453.737 67.8147C455.129 67.1096 456.752 66.7571 458.608 66.7571C460.5 66.7571 462.179 67.1282 463.645 67.8704C465.111 68.594 466.345 69.6331 467.347 70.9875C468.349 72.3235 469.1 73.9377 469.601 75.8303C470.102 77.7043 470.353 79.7917 470.353 82.0925ZM463.645 82.677V82.0925C463.645 80.7009 463.515 79.4114 463.256 78.2239C462.996 77.0178 462.588 75.9602 462.031 75.051C461.474 74.1418 460.76 73.4368 459.888 72.9358C459.034 72.4163 458.005 72.1565 456.798 72.1565C455.611 72.1565 454.59 72.3606 453.737 72.7688C452.883 73.1584 452.169 73.7058 451.594 74.4109C451.019 75.116 450.573 75.9417 450.258 76.8879C449.943 77.8157 449.72 78.8269 449.59 79.9216V85.321C449.813 86.657 450.193 87.8816 450.731 88.9949C451.269 90.1082 452.03 90.9988 453.013 91.6667C454.015 92.3162 455.296 92.6409 456.854 92.6409C458.06 92.6409 459.09 92.3811 459.944 91.8616C460.797 91.342 461.493 90.6277 462.031 89.7185C462.588 88.7908 462.996 87.7239 463.256 86.5178C463.515 85.3118 463.645 84.0315 463.645 82.677ZM482.794 73.1028V109.006H476.086V67.3137H482.265L482.794 73.1028ZM502.415 82.0925V82.677C502.415 84.8665 502.155 86.8982 501.636 88.7722C501.135 90.6277 500.383 92.2512 499.382 93.6428C498.398 95.0159 497.183 96.0828 495.736 96.8435C494.288 97.6042 492.618 97.9846 490.726 97.9846C488.852 97.9846 487.21 97.6414 485.799 96.9548C484.408 96.2498 483.23 95.2571 482.265 93.9768C481.3 92.6965 480.521 91.1936 479.927 89.468C479.352 87.7239 478.944 85.8127 478.702 83.7346V81.4802C478.944 79.2722 479.352 77.2683 479.927 75.4685C480.521 73.6687 481.3 72.1194 482.265 70.8206C483.23 69.5217 484.408 68.5198 485.799 67.8147C487.191 67.1096 488.815 66.7571 490.67 66.7571C492.563 66.7571 494.242 67.1282 495.708 67.8704C497.173 68.594 498.407 69.6331 499.409 70.9875C500.411 72.3235 501.163 73.9377 501.664 75.8303C502.165 77.7043 502.415 79.7917 502.415 82.0925ZM495.708 82.677V82.0925C495.708 80.7009 495.578 79.4114 495.318 78.2239C495.058 77.0178 494.65 75.9602 494.093 75.051C493.537 74.1418 492.822 73.4368 491.95 72.9358C491.097 72.4163 490.067 72.1565 488.861 72.1565C487.673 72.1565 486.653 72.3606 485.799 72.7688C484.946 73.1584 484.232 73.7058 483.656 74.4109C483.081 75.116 482.636 75.9417 482.32 76.8879C482.005 77.8157 481.782 78.8269 481.652 79.9216V85.321C481.875 86.657 482.256 87.8816 482.794 88.9949C483.332 90.1082 484.092 90.9988 485.076 91.6667C486.078 92.3162 487.358 92.6409 488.917 92.6409C490.123 92.6409 491.152 92.3811 492.006 91.8616C492.86 91.342 493.555 90.6277 494.093 89.7185C494.65 88.7908 495.058 87.7239 495.318 86.5178C495.578 85.3118 495.708 84.0315 495.708 82.677ZM4.25064 115.99V144.428H0.48111V115.99H4.25064ZM16.1647 128.783V131.869H3.43033V128.783H16.1647ZM18.0983 115.99V119.076H3.43033V115.99H18.0983ZM20.6569 134.096V133.647C20.6569 132.123 20.8782 130.711 21.321 129.408C21.7637 128.093 22.4017 126.954 23.235 125.99C24.0683 125.014 25.0775 124.259 26.2624 123.725C27.4473 123.178 28.7754 122.905 30.2467 122.905C31.7311 122.905 33.0657 123.178 34.2506 123.725C35.4486 124.259 36.4642 125.014 37.2975 125.99C38.1439 126.954 38.7884 128.093 39.2311 129.408C39.6738 130.711 39.8952 132.123 39.8952 133.647V134.096C39.8952 135.619 39.6738 137.032 39.2311 138.334C38.7884 139.636 38.1439 140.776 37.2975 141.752C36.4642 142.716 35.4551 143.471 34.2702 144.018C33.0983 144.552 31.7702 144.819 30.2858 144.819C28.8014 144.819 27.4668 144.552 26.2819 144.018C25.097 143.471 24.0814 142.716 23.235 141.752C22.4017 140.776 21.7637 139.636 21.321 138.334C20.8782 137.032 20.6569 135.619 20.6569 134.096ZM24.2702 133.647V134.096C24.2702 135.151 24.3939 136.147 24.6413 137.084C24.8887 138.009 25.2598 138.829 25.7545 139.545C26.2624 140.261 26.8939 140.828 27.6491 141.244C28.4043 141.648 29.2832 141.85 30.2858 141.85C31.2754 141.85 32.1413 141.648 32.8835 141.244C33.6387 140.828 34.2637 140.261 34.7585 139.545C35.2532 138.829 35.6243 138.009 35.8717 137.084C36.1322 136.147 36.2624 135.151 36.2624 134.096V133.647C36.2624 132.605 36.1322 131.622 35.8717 130.698C35.6243 129.76 35.2467 128.933 34.7389 128.217C34.2441 127.488 33.6191 126.915 32.8639 126.498C32.1217 126.082 31.2493 125.873 30.2467 125.873C29.2572 125.873 28.3848 126.082 27.6295 126.498C26.8874 126.915 26.2624 127.488 25.7545 128.217C25.2598 128.933 24.8887 129.76 24.6413 130.698C24.3939 131.622 24.2702 132.605 24.2702 133.647ZM48.0397 126.615V144.428H44.4264V123.295H47.942L48.0397 126.615ZM54.6413 123.178L54.6217 126.537C54.3223 126.472 54.0358 126.433 53.7624 126.42C53.5019 126.394 53.2025 126.381 52.8639 126.381C52.0306 126.381 51.2949 126.511 50.6569 126.772C50.0189 127.032 49.4785 127.397 49.0358 127.865C48.5931 128.334 48.2415 128.894 47.9811 129.545C47.7337 130.183 47.571 130.886 47.4928 131.655L46.4772 132.24C46.4772 130.964 46.6009 129.767 46.8483 128.647C47.1087 127.527 47.5058 126.537 48.0397 125.678C48.5736 124.806 49.2506 124.128 50.071 123.647C50.9043 123.152 51.8939 122.905 53.0397 122.905C53.3001 122.905 53.5996 122.937 53.9381 123.002C54.2767 123.054 54.5111 123.113 54.6413 123.178ZM71.5163 127.807V144.428H67.903V123.295H71.321L71.5163 127.807ZM70.6569 133.061L69.153 133.002C69.166 131.557 69.3808 130.222 69.7975 128.998C70.2142 127.761 70.8001 126.687 71.5553 125.776C72.3105 124.864 73.209 124.161 74.2506 123.666C75.3053 123.158 76.4707 122.905 77.7467 122.905C78.7884 122.905 79.7259 123.048 80.5592 123.334C81.3926 123.608 82.1022 124.05 82.6881 124.662C83.2871 125.274 83.7428 126.069 84.0553 127.045C84.3678 128.009 84.5241 129.187 84.5241 130.58V144.428H80.8913V130.541C80.8913 129.434 80.7285 128.549 80.403 127.885C80.0775 127.208 79.6022 126.72 78.9772 126.42C78.3522 126.108 77.584 125.951 76.6725 125.951C75.7741 125.951 74.9538 126.14 74.2116 126.518C73.4824 126.895 72.8509 127.416 72.317 128.08C71.7962 128.744 71.3861 129.506 71.0866 130.365C70.8001 131.212 70.6569 132.11 70.6569 133.061ZM89.0553 134.096V133.647C89.0553 132.123 89.2767 130.711 89.7194 129.408C90.1621 128.093 90.8001 126.954 91.6335 125.99C92.4668 125.014 93.4759 124.259 94.6608 123.725C95.8457 123.178 97.1738 122.905 98.6452 122.905C100.13 122.905 101.464 123.178 102.649 123.725C103.847 124.259 104.863 125.014 105.696 125.99C106.542 126.954 107.187 128.093 107.63 129.408C108.072 130.711 108.294 132.123 108.294 133.647V134.096C108.294 135.619 108.072 137.032 107.63 138.334C107.187 139.636 106.542 140.776 105.696 141.752C104.863 142.716 103.854 143.471 102.669 144.018C101.497 144.552 100.169 144.819 98.6842 144.819C97.1999 144.819 95.8652 144.552 94.6803 144.018C93.4954 143.471 92.4798 142.716 91.6335 141.752C90.8001 140.776 90.1621 139.636 89.7194 138.334C89.2767 137.032 89.0553 135.619 89.0553 134.096ZM92.6686 133.647V134.096C92.6686 135.151 92.7923 136.147 93.0397 137.084C93.2871 138.009 93.6582 138.829 94.153 139.545C94.6608 140.261 95.2923 140.828 96.0475 141.244C96.8027 141.648 97.6816 141.85 98.6842 141.85C99.6738 141.85 100.54 141.648 101.282 141.244C102.037 140.828 102.662 140.261 103.157 139.545C103.652 138.829 104.023 138.009 104.27 137.084C104.531 136.147 104.661 135.151 104.661 134.096V133.647C104.661 132.605 104.531 131.622 104.27 130.698C104.023 129.76 103.645 128.933 103.137 128.217C102.643 127.488 102.018 126.915 101.262 126.498C100.52 126.082 99.6478 125.873 98.6452 125.873C97.6556 125.873 96.7832 126.082 96.028 126.498C95.2858 126.915 94.6608 127.488 94.153 128.217C93.6582 128.933 93.2871 129.76 93.0397 130.698C92.7923 131.622 92.6686 132.605 92.6686 133.647ZM116.438 127.807V144.428H112.825V123.295H116.243L116.438 127.807ZM115.579 133.061L114.075 133.002C114.088 131.557 114.303 130.222 114.719 128.998C115.136 127.761 115.722 126.687 116.477 125.776C117.232 124.864 118.131 124.161 119.173 123.666C120.227 123.158 121.393 122.905 122.669 122.905C123.71 122.905 124.648 123.048 125.481 123.334C126.314 123.608 127.024 124.05 127.61 124.662C128.209 125.274 128.665 126.069 128.977 127.045C129.29 128.009 129.446 129.187 129.446 130.58V144.428H125.813V130.541C125.813 129.434 125.65 128.549 125.325 127.885C124.999 127.208 124.524 126.72 123.899 126.42C123.274 126.108 122.506 125.951 121.594 125.951C120.696 125.951 119.876 126.14 119.133 126.518C118.404 126.895 117.773 127.416 117.239 128.08C116.718 128.744 116.308 129.506 116.008 130.365C115.722 131.212 115.579 132.11 115.579 133.061ZM157.161 138.823C157.161 138.302 157.044 137.82 156.809 137.377C156.588 136.921 156.126 136.511 155.423 136.147C154.732 135.769 153.691 135.444 152.298 135.17C151.126 134.923 150.064 134.63 149.114 134.291C148.176 133.953 147.376 133.543 146.712 133.061C146.061 132.579 145.559 132.013 145.208 131.362C144.856 130.711 144.68 129.949 144.68 129.076C144.68 128.243 144.863 127.455 145.227 126.713C145.605 125.971 146.132 125.313 146.809 124.74C147.499 124.168 148.326 123.718 149.29 123.393C150.253 123.067 151.327 122.905 152.512 122.905C154.205 122.905 155.65 123.204 156.848 123.803C158.046 124.402 158.964 125.203 159.602 126.205C160.24 127.195 160.559 128.295 160.559 129.506H156.946C156.946 128.92 156.77 128.354 156.419 127.807C156.08 127.247 155.579 126.785 154.915 126.42C154.264 126.056 153.463 125.873 152.512 125.873C151.51 125.873 150.696 126.03 150.071 126.342C149.459 126.642 149.01 127.026 148.723 127.494C148.45 127.963 148.313 128.458 148.313 128.979C148.313 129.369 148.378 129.721 148.508 130.033C148.652 130.333 148.899 130.613 149.251 130.873C149.602 131.121 150.097 131.355 150.735 131.576C151.373 131.798 152.187 132.019 153.176 132.24C154.908 132.631 156.334 133.1 157.454 133.647C158.574 134.194 159.407 134.864 159.954 135.658C160.501 136.453 160.774 137.416 160.774 138.549C160.774 139.474 160.579 140.32 160.188 141.088C159.811 141.856 159.257 142.52 158.528 143.08C157.812 143.627 156.952 144.057 155.95 144.369C154.96 144.669 153.847 144.819 152.61 144.819C150.748 144.819 149.173 144.487 147.883 143.823C146.594 143.158 145.618 142.299 144.954 141.244C144.29 140.19 143.958 139.076 143.958 137.905H147.59C147.643 138.894 147.929 139.682 148.45 140.268C148.971 140.841 149.609 141.251 150.364 141.498C151.119 141.733 151.868 141.85 152.61 141.85C153.6 141.85 154.426 141.72 155.09 141.459C155.768 141.199 156.282 140.841 156.633 140.385C156.985 139.929 157.161 139.408 157.161 138.823ZM174.368 123.295V126.069H162.942V123.295H174.368ZM166.809 118.158H170.423V139.194C170.423 139.91 170.533 140.45 170.755 140.815C170.976 141.179 171.262 141.42 171.614 141.537C171.965 141.655 172.343 141.713 172.747 141.713C173.046 141.713 173.359 141.687 173.684 141.635C174.023 141.57 174.277 141.518 174.446 141.479L174.465 144.428C174.179 144.519 173.801 144.604 173.333 144.682C172.877 144.773 172.324 144.819 171.673 144.819C170.787 144.819 169.973 144.643 169.231 144.291C168.489 143.94 167.896 143.354 167.454 142.533C167.024 141.7 166.809 140.58 166.809 139.174V118.158ZM177.258 134.096V133.647C177.258 132.123 177.48 130.711 177.923 129.408C178.365 128.093 179.003 126.954 179.837 125.99C180.67 125.014 181.679 124.259 182.864 123.725C184.049 123.178 185.377 122.905 186.848 122.905C188.333 122.905 189.667 123.178 190.852 123.725C192.05 124.259 193.066 125.014 193.899 125.99C194.745 126.954 195.39 128.093 195.833 129.408C196.275 130.711 196.497 132.123 196.497 133.647V134.096C196.497 135.619 196.275 137.032 195.833 138.334C195.39 139.636 194.745 140.776 193.899 141.752C193.066 142.716 192.057 143.471 190.872 144.018C189.7 144.552 188.372 144.819 186.887 144.819C185.403 144.819 184.068 144.552 182.883 144.018C181.699 143.471 180.683 142.716 179.837 141.752C179.003 140.776 178.365 139.636 177.923 138.334C177.48 137.032 177.258 135.619 177.258 134.096ZM180.872 133.647V134.096C180.872 135.151 180.995 136.147 181.243 137.084C181.49 138.009 181.861 138.829 182.356 139.545C182.864 140.261 183.495 140.828 184.251 141.244C185.006 141.648 185.885 141.85 186.887 141.85C187.877 141.85 188.743 141.648 189.485 141.244C190.24 140.828 190.865 140.261 191.36 139.545C191.855 138.829 192.226 138.009 192.473 137.084C192.734 136.147 192.864 135.151 192.864 134.096V133.647C192.864 132.605 192.734 131.622 192.473 130.698C192.226 129.76 191.848 128.933 191.34 128.217C190.846 127.488 190.221 126.915 189.465 126.498C188.723 126.082 187.851 125.873 186.848 125.873C185.859 125.873 184.986 126.082 184.231 126.498C183.489 126.915 182.864 127.488 182.356 128.217C181.861 128.933 181.49 129.76 181.243 130.698C180.995 131.622 180.872 132.605 180.872 133.647ZM204.641 127.358V152.553H201.008V123.295H204.329L204.641 127.358ZM218.88 133.686V134.096C218.88 135.632 218.697 137.058 218.333 138.373C217.968 139.675 217.434 140.808 216.731 141.772C216.041 142.735 215.188 143.484 214.173 144.018C213.157 144.552 211.992 144.819 210.676 144.819C209.335 144.819 208.15 144.597 207.122 144.155C206.093 143.712 205.221 143.067 204.505 142.221C203.788 141.375 203.215 140.359 202.786 139.174C202.369 137.989 202.083 136.655 201.926 135.17V132.983C202.083 131.42 202.376 130.02 202.805 128.783C203.235 127.546 203.801 126.492 204.505 125.619C205.221 124.734 206.087 124.063 207.102 123.608C208.118 123.139 209.29 122.905 210.618 122.905C211.946 122.905 213.124 123.165 214.153 123.686C215.182 124.194 216.048 124.923 216.751 125.873C217.454 126.824 217.981 127.963 218.333 129.291C218.697 130.606 218.88 132.071 218.88 133.686ZM215.247 134.096V133.686C215.247 132.631 215.136 131.642 214.915 130.717C214.693 129.78 214.348 128.959 213.88 128.256C213.424 127.54 212.838 126.98 212.122 126.576C211.406 126.16 210.553 125.951 209.563 125.951C208.652 125.951 207.857 126.108 207.18 126.42C206.516 126.733 205.95 127.156 205.481 127.69C205.012 128.211 204.628 128.809 204.329 129.487C204.042 130.151 203.827 130.841 203.684 131.557V136.615C203.945 137.527 204.309 138.386 204.778 139.194C205.247 139.988 205.872 140.632 206.653 141.127C207.434 141.609 208.417 141.85 209.602 141.85C210.579 141.85 211.419 141.648 212.122 141.244C212.838 140.828 213.424 140.261 213.88 139.545C214.348 138.829 214.693 138.009 214.915 137.084C215.136 136.147 215.247 135.151 215.247 134.096ZM237.337 114.428V144.428H233.704V114.428H237.337ZM251.907 144.819C250.436 144.819 249.101 144.571 247.903 144.076C246.718 143.569 245.696 142.859 244.837 141.948C243.99 141.036 243.339 139.955 242.883 138.705C242.428 137.455 242.2 136.088 242.2 134.604V133.783C242.2 132.065 242.454 130.535 242.962 129.194C243.469 127.839 244.159 126.694 245.032 125.756C245.904 124.819 246.894 124.109 248.001 123.627C249.107 123.145 250.253 122.905 251.438 122.905C252.949 122.905 254.251 123.165 255.344 123.686C256.451 124.207 257.356 124.936 258.059 125.873C258.762 126.798 259.283 127.892 259.622 129.155C259.96 130.405 260.13 131.772 260.13 133.256V134.877H244.348V131.928H256.516V131.655C256.464 130.717 256.269 129.806 255.93 128.92C255.605 128.035 255.084 127.306 254.368 126.733C253.652 126.16 252.675 125.873 251.438 125.873C250.618 125.873 249.863 126.049 249.173 126.401C248.482 126.739 247.89 127.247 247.395 127.924C246.9 128.601 246.516 129.428 246.243 130.405C245.969 131.381 245.833 132.507 245.833 133.783V134.604C245.833 135.606 245.969 136.55 246.243 137.436C246.529 138.308 246.939 139.076 247.473 139.74C248.02 140.405 248.678 140.925 249.446 141.303C250.227 141.681 251.113 141.869 252.102 141.869C253.378 141.869 254.459 141.609 255.344 141.088C256.23 140.567 257.005 139.871 257.669 138.998L259.856 140.737C259.4 141.427 258.821 142.084 258.118 142.709C257.415 143.334 256.549 143.842 255.52 144.233C254.505 144.623 253.3 144.819 251.907 144.819ZM276.809 140.815V129.936C276.809 129.102 276.64 128.38 276.301 127.768C275.976 127.143 275.481 126.661 274.817 126.323C274.153 125.984 273.333 125.815 272.356 125.815C271.445 125.815 270.644 125.971 269.954 126.283C269.277 126.596 268.743 127.006 268.352 127.514C267.975 128.022 267.786 128.569 267.786 129.155H264.173C264.173 128.399 264.368 127.651 264.758 126.908C265.149 126.166 265.709 125.496 266.438 124.897C267.18 124.285 268.066 123.803 269.094 123.451C270.136 123.087 271.295 122.905 272.571 122.905C274.107 122.905 275.462 123.165 276.633 123.686C277.818 124.207 278.743 124.994 279.407 126.049C280.084 127.091 280.423 128.399 280.423 129.975V139.819C280.423 140.522 280.481 141.27 280.598 142.065C280.729 142.859 280.917 143.543 281.165 144.115V144.428H277.395C277.213 144.011 277.07 143.458 276.965 142.768C276.861 142.065 276.809 141.414 276.809 140.815ZM277.434 131.615L277.473 134.155H273.821C272.792 134.155 271.874 134.239 271.067 134.408C270.26 134.565 269.583 134.806 269.036 135.131C268.489 135.457 268.072 135.867 267.786 136.362C267.499 136.843 267.356 137.41 267.356 138.061C267.356 138.725 267.506 139.33 267.805 139.877C268.105 140.424 268.554 140.86 269.153 141.186C269.765 141.498 270.514 141.655 271.399 141.655C272.506 141.655 273.482 141.42 274.329 140.951C275.175 140.483 275.846 139.91 276.34 139.233C276.848 138.556 277.122 137.898 277.161 137.26L278.704 138.998C278.613 139.545 278.365 140.151 277.962 140.815C277.558 141.479 277.018 142.117 276.34 142.729C275.676 143.328 274.882 143.829 273.958 144.233C273.046 144.623 272.018 144.819 270.872 144.819C269.439 144.819 268.183 144.539 267.102 143.979C266.034 143.419 265.201 142.67 264.602 141.733C264.016 140.782 263.723 139.721 263.723 138.549C263.723 137.416 263.945 136.42 264.387 135.561C264.83 134.688 265.468 133.966 266.301 133.393C267.135 132.807 268.137 132.364 269.309 132.065C270.481 131.765 271.79 131.615 273.235 131.615H277.434ZM289.719 126.615V144.428H286.106V123.295H289.622L289.719 126.615ZM296.321 123.178L296.301 126.537C296.002 126.472 295.715 126.433 295.442 126.42C295.182 126.394 294.882 126.381 294.544 126.381C293.71 126.381 292.975 126.511 292.337 126.772C291.699 127.032 291.158 127.397 290.715 127.865C290.273 128.334 289.921 128.894 289.661 129.545C289.413 130.183 289.251 130.886 289.173 131.655L288.157 132.24C288.157 130.964 288.281 129.767 288.528 128.647C288.788 127.527 289.186 126.537 289.719 125.678C290.253 124.806 290.93 124.128 291.751 123.647C292.584 123.152 293.574 122.905 294.719 122.905C294.98 122.905 295.279 122.937 295.618 123.002C295.956 123.054 296.191 123.113 296.321 123.178ZM303.274 127.807V144.428H299.661V123.295H303.079L303.274 127.807ZM302.415 133.061L300.911 133.002C300.924 131.557 301.139 130.222 301.555 128.998C301.972 127.761 302.558 126.687 303.313 125.776C304.068 124.864 304.967 124.161 306.008 123.666C307.063 123.158 308.229 122.905 309.505 122.905C310.546 122.905 311.484 123.048 312.317 123.334C313.15 123.608 313.86 124.05 314.446 124.662C315.045 125.274 315.501 126.069 315.813 127.045C316.126 128.009 316.282 129.187 316.282 130.58V144.428H312.649V130.541C312.649 129.434 312.486 128.549 312.161 127.885C311.835 127.208 311.36 126.72 310.735 126.42C310.11 126.108 309.342 125.951 308.43 125.951C307.532 125.951 306.712 126.14 305.969 126.518C305.24 126.895 304.609 127.416 304.075 128.08C303.554 128.744 303.144 129.506 302.844 130.365C302.558 131.212 302.415 132.11 302.415 133.061ZM325.696 123.295V144.428H322.063V123.295H325.696ZM321.79 117.69C321.79 117.104 321.965 116.609 322.317 116.205C322.682 115.802 323.215 115.6 323.919 115.6C324.609 115.6 325.136 115.802 325.501 116.205C325.878 116.609 326.067 117.104 326.067 117.69C326.067 118.25 325.878 118.731 325.501 119.135C325.136 119.526 324.609 119.721 323.919 119.721C323.215 119.721 322.682 119.526 322.317 119.135C321.965 118.731 321.79 118.25 321.79 117.69ZM335.11 127.807V144.428H331.497V123.295H334.915L335.11 127.807ZM334.251 133.061L332.747 133.002C332.76 131.557 332.975 130.222 333.391 128.998C333.808 127.761 334.394 126.687 335.149 125.776C335.904 124.864 336.803 124.161 337.844 123.666C338.899 123.158 340.064 122.905 341.34 122.905C342.382 122.905 343.32 123.048 344.153 123.334C344.986 123.608 345.696 124.05 346.282 124.662C346.881 125.274 347.337 126.069 347.649 127.045C347.962 128.009 348.118 129.187 348.118 130.58V144.428H344.485V130.541C344.485 129.434 344.322 128.549 343.997 127.885C343.671 127.208 343.196 126.72 342.571 126.42C341.946 126.108 341.178 125.951 340.266 125.951C339.368 125.951 338.548 126.14 337.805 126.518C337.076 126.895 336.445 127.416 335.911 128.08C335.39 128.744 334.98 129.506 334.68 130.365C334.394 131.212 334.251 132.11 334.251 133.061ZM367.298 123.295H370.579V143.979C370.579 145.841 370.201 147.429 369.446 148.744C368.691 150.059 367.636 151.056 366.282 151.733C364.941 152.423 363.391 152.768 361.633 152.768C360.904 152.768 360.045 152.651 359.055 152.416C358.079 152.195 357.115 151.811 356.165 151.264C355.227 150.73 354.439 150.007 353.801 149.096L355.696 146.948C356.581 148.015 357.506 148.757 358.469 149.174C359.446 149.591 360.409 149.799 361.36 149.799C362.506 149.799 363.495 149.584 364.329 149.155C365.162 148.725 365.807 148.087 366.262 147.24C366.731 146.407 366.965 145.378 366.965 144.155V127.944L367.298 123.295ZM352.747 134.096V133.686C352.747 132.071 352.936 130.606 353.313 129.291C353.704 127.963 354.257 126.824 354.973 125.873C355.702 124.923 356.581 124.194 357.61 123.686C358.639 123.165 359.798 122.905 361.087 122.905C362.415 122.905 363.574 123.139 364.563 123.608C365.566 124.063 366.412 124.734 367.102 125.619C367.805 126.492 368.359 127.546 368.762 128.783C369.166 130.02 369.446 131.42 369.602 132.983V134.78C369.459 136.329 369.179 137.722 368.762 138.959C368.359 140.196 367.805 141.251 367.102 142.123C366.412 142.996 365.566 143.666 364.563 144.135C363.561 144.591 362.389 144.819 361.048 144.819C359.784 144.819 358.639 144.552 357.61 144.018C356.594 143.484 355.722 142.735 354.993 141.772C354.264 140.808 353.704 139.675 353.313 138.373C352.936 137.058 352.747 135.632 352.747 134.096ZM356.36 133.686V134.096C356.36 135.151 356.464 136.14 356.673 137.065C356.894 137.989 357.226 138.803 357.669 139.506C358.124 140.209 358.704 140.763 359.407 141.166C360.11 141.557 360.95 141.752 361.926 141.752C363.124 141.752 364.114 141.498 364.895 140.99C365.676 140.483 366.295 139.812 366.751 138.979C367.219 138.145 367.584 137.24 367.844 136.264V131.557C367.701 130.841 367.48 130.151 367.18 129.487C366.894 128.809 366.516 128.211 366.048 127.69C365.592 127.156 365.025 126.733 364.348 126.42C363.671 126.108 362.877 125.951 361.965 125.951C360.976 125.951 360.123 126.16 359.407 126.576C358.704 126.98 358.124 127.54 357.669 128.256C357.226 128.959 356.894 129.78 356.673 130.717C356.464 131.642 356.36 132.631 356.36 133.686Z" fill="black"/>
</svg>
